HIERARCHY
ROOT Hips
{
	OFFSET -3.958830 18.904000 13.208200
	CHANNELS 6 Xposition Yposition Zposition Zrotation Yrotation Xrotation 
	JOINT LHipJoint
	{
		OFFSET 0.000000 0.000000 0.000000
		CHANNELS 3 Zrotation Yrotation Xrotation
		JOINT LeftUpLeg
		{
			OFFSET 1.800000 -1.400000 0.085000
			CHANNELS 3 Zrotation Yrotation Xrotation
			JOINT LeftLeg
			{
				OFFSET 2.215000 -6.000000 0.000000
				CHANNELS 3 Zrotation Yrotation Xrotation
				JOINT LeftFoot
				{
					OFFSET 2.500000 -6.900000 0.000000
					CHANNELS 3 Zrotation Yrotation Xrotation
					JOINT LeftToeBase
					{
						OFFSET 0.200000 -0.500000 1.950000
						CHANNELS 3 Zrotation Yrotation Xrotation
						End Site
						{
							OFFSET 0.000000 0.000000 0.000000
						}
					}
				}
			}
		}
	}
	JOINT RHipJoint
	{
		OFFSET 0.000000 0.000000 0.000000
		CHANNELS 3 Zrotation Yrotation Xrotation
		JOINT RightUpLeg
		{
			OFFSET -1.800000 -1.400000 0.085000
			CHANNELS 3 Zrotation Yrotation Xrotation
			JOINT RightLeg
			{
				OFFSET -2.215000 -6.000000 0.000000
				CHANNELS 3 Zrotation Yrotation Xrotation
				JOINT RightFoot
				{
					OFFSET -2.500000 -6.900000 0.000000
					CHANNELS 3 Zrotation Yrotation Xrotation
					JOINT RightToeBase
					{
						OFFSET -0.200000 -0.500000 1.950000
						CHANNELS 3 Zrotation Yrotation Xrotation
						End Site
						{
							OFFSET 0.000000 0.000000 0.000000
						}
					}
				}
			}
		}
	}
	JOINT LowerBack
	{
		OFFSET 0.000000 0.000000 0.000000
		CHANNELS 3 Zrotation Yrotation Xrotation
		JOINT Spine
		{
			OFFSET -0.087000 1.940000 -0.288900
			CHANNELS 3 Zrotation Yrotation Xrotation
			JOINT Spine1
			{
				OFFSET 0.000000 1.950000 0.060000
				CHANNELS 3 Zrotation Yrotation Xrotation
				JOINT Neck
				{
					OFFSET 0.000000 0.000000 0.000000
					CHANNELS 3 Zrotation Yrotation Xrotation
					JOINT Neck1
					{
						OFFSET 0.000000 1.600000 0.340000
						CHANNELS 3 Zrotation Yrotation Xrotation
						JOINT Head
						{
							OFFSET 0.000000 1.667000 -0.240000
							CHANNELS 3 Zrotation Yrotation Xrotation
							End Site
							{
								OFFSET 0.000000 0.000000 0.000000
							}
						}
					}
				}
				JOINT LeftShoulder
				{
					OFFSET 0.000000 0.000000 0.000000
					CHANNELS 3 Zrotation Yrotation Xrotation
					JOINT LeftArm
					{
						OFFSET 2.700000 1.550000 -0.730000
						CHANNELS 3 Zrotation Yrotation Xrotation
						JOINT LeftForeArm
						{
							OFFSET 5.450000 0.000000 0.000000
							CHANNELS 3 Zrotation Yrotation Xrotation
							JOINT LeftHand
							{
								OFFSET 3.450000 0.000000 0.000000
								CHANNELS 3 Zrotation Yrotation Xrotation
								JOINT LeftHandIndex1
								{
									OFFSET 0.750000 0.000000 0.000000
									CHANNELS 3 Zrotation Yrotation Xrotation
									End Site
									{
										OFFSET 0.000000 0.000000 0.000000
									}
								}
							}
						}
					}
				}
				JOINT RightShoulder
				{
					OFFSET 0.000000 0.000000 0.000000
					CHANNELS 3 Zrotation Yrotation Xrotation
					JOINT RightArm
					{
						OFFSET -2.700000 1.550000 -0.730000
						CHANNELS 3 Zrotation Yrotation Xrotation
						JOINT RightForeArm
						{
							OFFSET -5.450000 0.000000 0.000000
							CHANNELS 3 Zrotation Yrotation Xrotation
							JOINT RightHand
							{
								OFFSET -3.450000 0.000000 0.000000
								CHANNELS 3 Zrotation Yrotation Xrotation
								JOINT RightHandIndex1
								{
									OFFSET -0.750000 0.000000 0.000000
									CHANNELS 3 Zrotation Yrotation Xrotation
									End Site
									{
										OFFSET 0.000000 0.000000 0.000000
									}
								}
							}
						}
					}
				}
			}
		}
	}
}
MOTION
Frames: 9
Frame Time: 0.016667
-0.893880 18.808910 0.056050 -0.655541 29.079833 8.692582 -15.308144 13.105310 3.668045 2.837737 -4.056377 -29.940210 -5.995251 7.228060 23.549605 0.114574 4.093403 3.077682 -0.309110 -0.375380 -0.400010 18.072371 -11.051746 2.503757 -1.881320 1.346106 -14.816901 2.746648 -4.356814 19.523754 0.106199 -3.135473 3.357229 -0.254290 0.350880 -0.056110 -3.774974 -1.678535 -7.376323 2.912590 3.389309 11.051904 -3.670154 3.560857 -11.193495 -0.938622 -13.426216 -6.437352 -27.951828 12.853755 24.398387 2.768860 4.496320 4.128150 -1.711814 26.583519 -0.223172 -55.704404 23.020996 -17.783199 -2.407004 -24.299021 -0.508901 -3.798420 2.869401 0.061750 0.043860 -0.186290 0.082890 3.217722 -13.366750 2.038718 53.820118 -15.810693 -18.739165 10.414191 34.102079 1.733102 2.534897 -1.237840 -0.153590 0.123320 0.212310 0.115890 
-0.895150 18.843970 0.069470 -1.059663 29.354728 9.029725 -15.310928 13.134339 3.675936 3.366117 -3.954622 -29.765097 -6.565847 7.141980 22.244502 0.106605 3.968034 3.119108 -0.319450 -0.390510 -0.387350 18.059727 -11.022312 2.530577 -1.755147 1.414129 -14.955715 3.135237 -4.485473 19.729566 0.098418 -3.144986 3.354471 -0.272360 0.329550 -0.058670 -3.764805 -1.780369 -7.436533 3.190341 3.229999 11.485168 -4.183806 3.305759 -12.102127 -0.540135 -13.150153 -6.222144 -27.441758 12.695612 24.885243 2.188760 4.972920 4.356670 -0.863850 28.168760 -0.715728 -54.244932 24.321425 -18.004572 -2.408720 -23.604921 -0.468690 -3.797913 2.855018 0.073060 0.035770 -0.174060 0.070750 1.572950 -15.199229 2.191806 54.567215 -18.434657 -20.078788 12.411406 34.389328 2.174108 2.528626 -1.233294 -0.151790 0.110980 0.208240 0.104990 
-0.888240 18.896760 0.092500 -1.365378 29.873094 9.740285 -15.327093 13.185407 3.695436 3.767942 -3.879958 -29.165219 -7.594465 6.996605 20.126325 0.112334 3.785926 3.189671 -0.344140 -0.418100 -0.390840 18.026563 -10.963261 2.560585 -2.042830 1.455030 -15.176433 4.044008 -4.685025 19.344173 0.099747 -3.115792 3.369399 -0.302180 0.317000 -0.071880 -3.709618 -1.982764 -7.516222 2.968663 2.936086 11.967641 -4.012068 2.901733 -13.422456 -0.455393 -12.843221 -6.030812 -27.076410 12.627914 25.454915 2.448750 5.072430 4.957740 1.195820 30.498468 -0.760063 -53.026105 27.802526 -19.227917 -3.505410 -23.277230 -0.314330 -3.776819 2.843284 0.083310 0.021060 -0.165170 0.060760 -0.517006 -17.714675 2.072780 55.083345 -21.907854 -21.572723 12.508980 31.319933 1.723312 2.569715 -1.137050 -0.152610 0.105130 0.207590 0.102990 
-0.876450 18.912610 0.121440 -1.879902 30.791362 10.180734 -15.342521 13.249567 3.664672 4.149572 -3.678192 -27.856459 -8.499695 6.596425 17.062085 0.084418 3.570273 3.290848 -0.402650 -0.499910 -0.416520 18.002059 -10.890953 2.599630 -1.835258 1.358177 -14.998454 4.536644 -4.703241 18.209565 0.125312 -3.048513 3.408885 -0.346610 0.339230 -0.076210 -3.674528 -2.214688 -7.564797 3.220740 2.272018 12.110216 -3.587957 2.282095 -13.971395 -0.502345 -12.537384 -5.713763 -26.429683 11.758782 25.776204 2.003690 4.654050 6.001600 3.942075 33.295730 -0.701998 -52.834527 32.290287 -21.260229 -5.869925 -24.277680 -0.008675 -3.769187 2.840429 0.087770 0.035830 -0.186550 0.044370 -3.140322 -20.575703 2.103631 54.994940 -26.051363 -23.382278 14.655801 31.333451 2.073124 2.537615 -1.111182 -0.176710 0.109070 0.239140 0.095440 
-0.862820 18.917130 0.140880 -2.723747 31.828926 10.006649 -15.339195 13.353917 3.605577 4.072387 -3.413490 -26.189336 -8.327274 5.857817 13.788478 0.052960 3.232569 3.418396 -0.434470 -0.549540 -0.420460 17.991937 -10.838013 2.654746 -1.371779 1.181546 -14.411783 4.801310 -4.668932 17.005615 0.119721 -2.966127 3.443706 -0.387930 0.322240 -0.077500 -3.720212 -2.458696 -7.632272 4.489392 1.333090 12.338658 -3.434485 1.571014 -14.041406 -0.415088 -12.231966 -6.065571 -26.675688 12.021581 27.616511 2.108960 4.783330 7.133450 6.326859 34.807577 -0.178880 -53.421158 36.667636 -23.342763 -8.821969 -24.573162 0.256176 -3.723758 2.815876 0.119090 0.018250 -0.170340 0.026230 -5.638202 -22.367123 2.187252 56.265352 -28.540830 -25.150741 14.939926 31.230452 2.117383 2.529548 -1.051885 -0.180880 0.098400 0.255170 0.084080 
-0.860540 18.913290 0.150700 -2.795053 32.847929 10.370104 -15.361004 13.394652 3.600987 3.486222 -3.373162 -24.947661 -8.225151 5.268286 11.076528 0.051288 2.994420 3.517454 -0.460100 -0.588300 -0.430160 17.970406 -10.782558 2.667236 -1.332721 1.057806 -14.342599 4.610559 -4.466718 15.666408 0.135823 -2.845342 3.490503 -0.423060 0.318520 -0.068830 -3.685451 -2.644457 -7.666803 4.689820 0.705902 12.197998 -3.353406 1.005289 -13.467188 -0.141078 -11.837809 -6.477963 -26.198581 11.828537 28.674670 2.211100 4.650520 8.520730 7.967747 35.378161 0.253147 -54.455886 38.485121 -24.782678 -10.710345 -25.359337 0.522449 -3.693399 2.825274 0.123240 0.017240 -0.166420 0.018680 -7.634795 -23.340596 2.431731 57.796233 -30.551902 -26.733407 15.462321 31.243429 2.165991 2.519052 -1.023516 -0.174200 0.076750 0.263160 0.084060 
-0.862070 18.907720 0.151650 -2.666166 34.403594 10.901565 -15.389753 13.397337 3.633819 2.786519 -3.431838 -24.056710 -8.146371 4.732495 8.552691 0.050995 2.796713 3.599104 -0.456790 -0.585470 -0.424950 17.947375 -10.721327 2.667185 -1.411446 1.027713 -14.642980 4.455798 -4.286140 14.670686 0.147575 -2.731286 3.530682 -0.431280 0.300600 -0.064500 -3.650420 -2.795295 -7.708033 4.892579 0.112402 12.272212 -3.403524 0.473120 -13.171573 0.184751 -11.652124 -6.663178 -25.837214 11.113126 28.984938 2.099330 4.074310 8.514750 8.274831 35.381580 0.336124 -54.849822 37.785839 -25.079391 -11.878856 -26.997955 0.929314 -3.652274 2.879201 0.122000 0.008200 -0.157030 0.016110 -8.452939 -23.738467 2.518396 58.524372 -31.732757 -27.399397 14.475674 30.516051 1.850988 2.527763 -0.989077 -0.159170 0.060770 0.255260 0.085760 
-0.852840 18.903810 0.149910 -2.785779 34.506360 11.073969 -15.404068 13.397878 3.633130 2.412571 -3.405282 -23.494448 -7.940546 4.417421 7.045862 0.040387 2.712603 3.637894 -0.458690 -0.584530 -0.433720 17.946311 -10.667183 2.650415 -1.639797 0.976649 -14.649508 4.226679 -4.086428 13.516075 0.163083 -2.647352 3.563427 -0.426720 0.310040 -0.064490 -3.619080 -2.897696 -7.688838 5.206134 -0.110214 11.861372 -2.600215 0.394644 -12.211451 0.046706 -11.664349 -6.938762 -26.074745 11.262110 29.169541 2.297300 3.945600 8.774050 8.687586 34.913274 0.819898 -56.240472 36.357832 -25.125523 -13.520450 -27.489120 1.223249 -3.642771 2.880085 0.117360 0.014270 -0.162340 0.018320 -8.513820 -23.443944 2.356552 58.002875 -30.323078 -26.730611 14.157938 30.781160 1.916002 2.524223 -1.020600 -0.161540 0.065500 0.260120 0.089260 
-0.834530 18.890510 0.145260 -2.910122 34.089111 11.145185 -15.405134 13.404533 3.598182 1.932793 -3.345916 -22.928944 -7.247997 4.163693 6.275821 0.020616 2.634416 3.674315 -0.466360 -0.594710 -0.427520 17.951394 -10.659598 2.637317 -2.288501 0.963772 -14.705932 4.509750 -4.078382 12.765521 0.173498 -2.633182 3.568325 -0.427010 0.312890 -0.060490 -3.607293 -2.902179 -7.648619 5.684403 -0.093430 11.256122 -2.307600 0.490459 -11.145363 0.254321 -11.449834 -7.069944 -25.528621 10.934806 29.574154 1.601690 4.150340 8.930990 8.418007 34.170562 0.983167 -57.747550 34.253656 -25.015295 -14.130387 -29.767129 1.717376 -3.633537 2.908189 0.113700 0.027340 -0.165960 0.010200 -8.678477 -22.905199 2.435171 58.124742 -28.401179 -26.212474 13.373108 32.234546 2.133945 2.505816 -1.074672 -0.167220 0.066870 0.265500 0.082290 
